<svg width="1010" height="300" viewBox="0 0 1010 300" fill="none" xmlns="http://www.w3.org/2000/svg">
<g clip-path="url(#clip0_178_2374)">
<mask id="mask0_178_2374" style="mask-type:alpha" maskUnits="userSpaceOnUse" x="-165" y="9" width="1137" height="279">
<rect x="75" y="43.3789" width="240" height="40" rx="20" fill="black"/>
<rect x="586" y="43" width="240" height="40" rx="20" fill="black"/>
<rect x="412" y="43" width="100" height="40" rx="20" fill="black"/>
<circle cx="342.293" cy="63.5" r="40" stroke="black" stroke-width="28"/>
<rect x="194.645" y="128.118" width="100" height="40" rx="20" fill="black"/>
<rect x="-44" y="43.001" width="100" height="40" rx="20" fill="black"/>
<rect x="-125" y="128.001" width="240" height="40" rx="20" fill="black"/>
<rect x="-165" y="213.001" width="240" height="40" rx="20" fill="black"/>
<rect x="135.008" y="128.118" width="40" height="40" rx="20" fill="black"/>
<rect x="529" y="43.001" width="40" height="40" rx="20" fill="black"/>
<rect x="554" y="213.001" width="40" height="40" rx="20" fill="black"/>
<rect x="313.539" y="128.118" width="240" height="40" rx="20" fill="black"/>
<rect x="434" y="213.001" width="100" height="40" rx="20" fill="black"/>
<rect x="613" y="213.001" width="100" height="40" rx="20" fill="black"/>
<rect x="656" y="128.001" width="240" height="40" rx="20" fill="black"/>
<rect x="732" y="213.001" width="240" height="40" rx="20" fill="black"/>
<circle cx="580.809" cy="148.239" r="40" stroke="black" stroke-width="28"/>
<rect x="94.875" y="213.188" width="100" height="40" rx="20" fill="black"/>
<rect x="220.773" y="213.188" width="100" height="40" rx="20" fill="black"/>
<circle cx="354.863" cy="233.309" r="40" stroke="black" stroke-width="28"/>
<rect x="450" y="213" width="40" height="40" rx="20" fill="black"/>
</mask>
<g mask="url(#mask0_178_2374)">
<rect y="300" width="337" height="1010" transform="rotate(-90 0 300)" fill="url(#paint0_linear_178_2374)"/>
</g>
</g>
<defs>
<linearGradient id="paint0_linear_178_2374" x1="168" y1="300" x2="168" y2="1586.07" gradientUnits="userSpaceOnUse">
<stop stop-color="#FFA776"/>
<stop offset="1" stop-color="#FF5B00" stop-opacity="0"/>
</linearGradient>
<clipPath id="clip0_178_2374">
<rect width="1010" height="300" fill="white"/>
</clipPath>
</defs>
</svg>
